<svg xmlns="http://www.w3.org/2000/svg" viewBox="0 0 16 16"><path d="M8 12.998c-.3 0-.6-.155-.908-.465-.122-.122-.122-.32 0-.442s.32-.12.442 0c.19.192.343.285.466.285s.276-.093.467-.283c.122-.122.32-.122.442 0s.12.32 0 .442C8.6 12.844 8.3 13 8 13zM0 8.21c0 .78.067 1.487.2 2.12s.32 1.184.563 1.65c.242.466.547.873.917 1.224s.77.64 1.204.867c.433.228.93.412 1.487.552s1.127.238 1.705.294S7.29 15 7.983 15s1.332-.028 1.912-.084 1.15-.154 1.708-.294c.558-.14 1.056-.324 1.492-.55s.84-.517 1.212-.868c.372-.35.68-.76.92-1.224s.432-1.015.568-1.65c.136-.633.204-1.34.204-2.12 0-1.396-.434-2.6-1.3-3.608.05-.135.092-.29.128-.463s.07-.42.104-.737c.033-.317.02-.683-.037-1.098s-.168-.84-.33-1.27l-.124-.025c-.082-.017-.218-.01-.407.017s-.41.078-.662.15c-.252.074-.578.218-.978.434s-.822.49-1.267.82C10.37 2.2 9.328 1.96 8 1.96s-2.372.24-3.133.47C4.423 2.1 4 1.83 3.597 1.616s-.726-.36-.968-.437c-.243-.08-.466-.13-.672-.15s-.338-.03-.396-.022c-.058.008-.1.018-.13.03-.16.43-.27.854-.332 1.27s-.075.78-.042 1.093c.033.313.07.56.108.74s.083.333.133.462C.43 5.606 0 6.81 0 8.212zm2.133 1.78c0-.906.333-1.728 1-2.465.2-.225.432-.396.696-.51s.563-.182.9-.198.656-.013.962.01c.306.02.683.05 1.133.088s.84.056 1.167.056c.328 0 .717-.018 1.167-.055s.827-.067 1.132-.09c.306-.02.626-.024.963-.008s.638.08.904.197c.266.116.5.286.7.51.666.74 1 1.56 1 2.467 0 .532-.057 1.006-.168 1.422s-.25.764-.42 1.046c-.17.28-.408.52-.713.713s-.602.345-.888.45c-.286.107-.656.19-1.108.25s-.858.095-1.217.108c-.358.012-.81.02-1.354.02s-.994-.007-1.35-.02c-.356-.012-.76-.05-1.213-.108s-.822-.142-1.108-.25c-.286-.105-.582-.255-.888-.45s-.543-.43-.712-.712c-.17-.28-.31-.63-.42-1.046s-.168-.89-.168-1.42zM4 9.5C4 8.672 4.448 8 5 8s1 .672 1 1.5S5.552 11 5 11s-1-.672-1-1.5zm6 0c0-.828.448-1.5 1-1.5s1 .672 1 1.5-.448 1.5-1 1.5-1-.672-1-1.5z"/></svg>
