<svg xmlns="http://www.w3.org/2000/svg" version="1.1" x="0" y="0" width="450" height="150" viewBox="0 0 100 34" enable-background="new 0 0 100 34" xml:space="preserve">
  <rect x="20" y="11.1" fill="#FFDD00" width="2" height="12.6"></rect>
  <polygon fill="#FFDD00" points="35.7 23.7 33.7 23.7 33.7 15.9 32 21.1 30.9 21.1 29.2 16 29.2 23.7 27.2 23.7 27.2 11.1 29 11.1 31.4 17.8 33.9 11.1 35.7 11.1 "></polygon>
  <path fill="#FFDD00" d="M47.3 15c0 1.3-0.2 2.3-0.7 2.9 -0.5 0.6-1.3 1-2.5 1h-1.2v4.9h-2V11.1h3.2c1.1 0 2 0.3 2.5 0.9C47 12.7 47.3 13.6 47.3 15M45.3 15c0-0.6-0.1-1.1-0.2-1.3 -0.2-0.5-0.5-0.7-1-0.7h-1.2v4.1h1.2c0.5 0 0.9-0.2 1-0.7C45.3 16 45.3 15.6 45.3 15"></path>
  <polygon fill="#FFDD00" points="57.4 23.7 52.1 23.7 52.1 11.1 57.4 11.1 57.4 12.9 54.1 12.9 54.1 16.5 56.9 16.5 56.9 18.3 54.1 18.3 54.1 22 57.4 22 "></polygon>
  <path fill="#FFDD00" d="M69 23.7h-2.1l-1.6-5.2h-1.1v5.2h-2V11.1h3.2c1.1 0 2 0.3 2.5 0.9 0.5 0.6 0.8 1.5 0.8 2.8 0 1.7-0.5 2.8-1.5 3.3L69 23.7zM66.6 14.9c0-0.6-0.1-1-0.2-1.3 -0.2-0.4-0.5-0.6-1-0.6h-1.2v3.9h1.2c0.5 0 0.9-0.2 1-0.6C66.6 15.9 66.6 15.4 66.6 14.9M80.2 17.4c0 1.6 0 2.6-0.1 3.2 -0.1 1-0.4 1.7-0.8 2.2 -0.6 0.7-1.4 1.1-2.4 1.1 -1 0-1.8-0.4-2.4-1.1 -0.4-0.5-0.7-1.2-0.8-2.2 -0.1-0.6-0.1-1.7-0.1-3.2 0-1.6 0-2.6 0.1-3.2 0.1-1 0.4-1.7 0.8-2.2C75 11.4 75.8 11 76.8 11c1 0 1.8 0.4 2.4 1.1 0.4 0.5 0.7 1.2 0.8 2.2C80.1 14.8 80.2 15.9 80.2 17.4M78.2 17.4c0-2.3-0.1-3.7-0.4-4.2 -0.2-0.3-0.5-0.5-1-0.5 -0.4 0-0.7 0.2-0.9 0.5 -0.3 0.5-0.4 1.9-0.4 4.2 0 2.3 0.1 3.7 0.4 4.2 0.2 0.3 0.5 0.5 0.9 0.5 0.4 0 0.8-0.2 1-0.5C78 21.2 78.2 19.8 78.2 17.4"></path>
</svg>
